<svg width="83" height="71" fill="none" xmlns="http://www.w3.org/2000/svg"><path d="M2.688 16.816h3.904V18h-5.36V6.848h1.456v9.968zM8.89 7.808a.958.958 0 01-.704-.288.958.958 0 01-.288-.704c0-.277.096-.512.288-.704a.958.958 0 01.704-.288c.267 0 .49.096.672.288a.958.958 0 01.288.704.958.958 0 01-.288.704.887.887 0 01-.672.288zm.704 1.424V18H8.138V9.232h1.456zm6.754-.16c1.066 0 1.93.325 2.592.976.661.64.992 1.568.992 2.784V18h-1.44v-4.96c0-.875-.219-1.541-.656-2-.438-.47-1.035-.704-1.792-.704-.768 0-1.382.24-1.84.72-.448.48-.672 1.179-.672 2.096V18h-1.456V9.232h1.456v1.248A2.903 2.903 0 0114.7 9.44a3.698 3.698 0 011.648-.368zM30.31 13.28c0 .277-.016.57-.048.88h-7.008c.053.864.347 1.541.88 2.032.544.48 1.2.72 1.968.72.63 0 1.152-.144 1.568-.432.427-.299.725-.693.896-1.184h1.568a3.807 3.807 0 01-1.408 2.064c-.704.523-1.578.784-2.624.784-.832 0-1.579-.187-2.24-.56A3.993 3.993 0 0122.326 16c-.373-.693-.56-1.493-.56-2.4 0-.907.182-1.701.544-2.384a3.782 3.782 0 011.52-1.568c.662-.373 1.419-.56 2.272-.56.832 0 1.568.181 2.208.544a3.7 3.7 0 011.472 1.504c.352.63.528 1.344.528 2.144zm-1.504-.304c0-.555-.123-1.03-.368-1.424a2.316 2.316 0 00-1.008-.912 3.006 3.006 0 00-1.392-.32c-.736 0-1.365.235-1.888.704-.512.47-.805 1.12-.88 1.952h5.536zM9.792 42l-1.456-1.472c-.544.565-1.125.987-1.744 1.264-.619.267-1.317.4-2.096.4-.768 0-1.45-.139-2.048-.416a3.249 3.249 0 01-1.376-1.184c-.32-.512-.48-1.11-.48-1.792 0-.779.219-1.461.656-2.048.448-.597 1.104-1.067 1.968-1.408-.341-.405-.587-.779-.736-1.12a2.764 2.764 0 01-.224-1.12c0-.47.117-.89.352-1.264a2.449 2.449 0 011.04-.896c.448-.213.965-.32 1.552-.32.576 0 1.077.112 1.504.336.427.224.747.539.96.944.213.395.31.837.288 1.328H6.496c.01-.437-.112-.779-.368-1.024-.256-.256-.587-.384-.992-.384-.427 0-.773.123-1.04.368-.256.235-.384.539-.384.912 0 .32.085.63.256.928.181.299.48.667.896 1.104l3.328 3.344.288-.448 1.088-1.824h1.568L9.824 38.48c-.181.32-.395.656-.64 1.008L11.696 42H9.792zm-5.296-1.056a3.49 3.49 0 001.552-.336c.47-.224.912-.57 1.328-1.04l-3.28-3.296c-1.365.523-2.048 1.35-2.048 2.48 0 .63.224 1.152.672 1.568.459.416 1.05.624 1.776.624zm.272 25.168c-.736 0-1.397-.128-1.984-.384-.576-.267-1.03-.63-1.36-1.088a2.825 2.825 0 01-.512-1.616h1.552c.053.523.267.965.64 1.328.384.352.939.528 1.664.528.693 0 1.237-.17 1.632-.512.405-.352.608-.8.608-1.344 0-.427-.117-.773-.352-1.04a2.249 2.249 0 00-.88-.608 13.742 13.742 0 00-1.424-.448c-.736-.192-1.328-.384-1.776-.576a2.95 2.95 0 01-1.136-.896c-.31-.416-.464-.97-.464-1.664 0-.608.155-1.147.464-1.616.31-.47.741-.832 1.296-1.088.565-.256 1.21-.384 1.936-.384 1.045 0 1.899.261 2.56.784.672.523 1.05 1.216 1.136 2.08h-1.6c-.053-.427-.277-.8-.672-1.12-.395-.33-.917-.496-1.568-.496-.608 0-1.104.16-1.488.48-.384.31-.576.747-.576 1.312 0 .405.112.736.336.992.235.256.517.453.848.592.341.128.816.277 1.424.448.736.203 1.328.405 1.776.608.448.192.832.496 1.152.912.32.405.48.96.48 1.664 0 .544-.144 1.056-.432 1.536-.288.48-.715.87-1.28 1.168-.565.299-1.232.448-2 .448zm7.31-7.264c.289-.501.715-.917 1.28-1.248.577-.341 1.243-.512 2-.512.78 0 1.483.187 2.113.56.64.373 1.141.901 1.504 1.584.362.672.544 1.456.544 2.352 0 .885-.182 1.675-.544 2.368a4.003 4.003 0 01-1.504 1.616 3.974 3.974 0 01-2.112.576c-.747 0-1.408-.165-1.984-.496-.566-.341-.998-.763-1.296-1.264v5.776h-1.456V57.232h1.456v1.616zm5.953 2.736c0-.661-.134-1.237-.4-1.728a2.753 2.753 0 00-1.088-1.12 2.946 2.946 0 00-1.488-.384 2.91 2.91 0 00-1.488.4c-.448.256-.811.635-1.088 1.136-.267.49-.4 1.061-.4 1.712 0 .661.133 1.243.4 1.744.277.49.64.87 1.088 1.136a3 3 0 001.488.384c.544 0 1.04-.128 1.488-.384a2.863 2.863 0 001.088-1.136c.266-.501.4-1.088.4-1.76zm2.86 0c0-.896.182-1.68.544-2.352a3.952 3.952 0 011.488-1.584 4.15 4.15 0 012.128-.56c.768 0 1.435.165 2 .496.566.33.987.747 1.264 1.248v-1.6h1.472V66h-1.472v-1.632c-.288.512-.72.939-1.296 1.28-.565.33-1.226.496-1.984.496a3.975 3.975 0 01-2.112-.576 4.04 4.04 0 01-1.488-1.616c-.362-.693-.544-1.483-.544-2.368zm7.424.016c0-.661-.133-1.237-.4-1.728a2.753 2.753 0 00-1.088-1.12 2.854 2.854 0 00-1.488-.4c-.544 0-1.04.128-1.488.384-.448.256-.805.63-1.072 1.12-.267.49-.4 1.067-.4 1.728 0 .672.133 1.259.4 1.76a2.9 2.9 0 001.072 1.136c.448.256.944.384 1.488.384s1.04-.128 1.488-.384a2.863 2.863 0 001.088-1.136c.267-.501.4-1.083.4-1.744zm3.389 0c0-.907.181-1.696.544-2.368a3.917 3.917 0 011.504-1.584c.65-.373 1.392-.56 2.224-.56 1.077 0 1.962.261 2.656.784.704.523 1.168 1.248 1.392 2.176h-1.568a2.238 2.238 0 00-.88-1.264c-.427-.31-.96-.464-1.6-.464-.832 0-1.504.288-2.016.864-.512.565-.768 1.37-.768 2.416 0 1.056.256 1.872.768 2.448.512.576 1.184.864 2.016.864.64 0 1.173-.15 1.6-.448.426-.299.72-.725.88-1.28h1.568c-.235.896-.704 1.616-1.408 2.16-.704.533-1.584.8-2.64.8-.832 0-1.574-.187-2.224-.56A3.917 3.917 0 0132.248 64c-.363-.683-.544-1.483-.544-2.4zm18.262-.32c0 .277-.016.57-.048.88H42.91c.054.864.347 1.541.88 2.032.544.48 1.2.72 1.968.72.63 0 1.152-.144 1.568-.432.427-.299.726-.693.896-1.184h1.568a3.808 3.808 0 01-1.408 2.064c-.704.523-1.578.784-2.624.784-.832 0-1.578-.187-2.24-.56A3.992 3.992 0 0141.982 64c-.373-.693-.56-1.493-.56-2.4 0-.907.182-1.701.544-2.384a3.78 3.78 0 011.52-1.568c.662-.373 1.419-.56 2.272-.56.832 0 1.568.181 2.208.544a3.7 3.7 0 011.472 1.504c.352.63.528 1.344.528 2.144zm-1.504-.304c0-.555-.122-1.03-.368-1.424a2.317 2.317 0 00-1.008-.912 3.006 3.006 0 00-1.392-.32c-.736 0-1.365.235-1.888.704-.512.47-.805 1.12-.88 1.952h5.536z" fill="#000"/></svg>